# xmcd
#
# Track frame offsets:
#	150
#	5260
#	25670
#	47842
#	69302
#	85662
#	109972
#	132519
#	152366
#	182976
#	204061
#	216296
#	236031
#	249887
#	265375
#	283385
#	301845
#
# Disc length: 4294 seconds
#
# Revision: 1
# Processed by: cddbd v1.5.2PL0 Copyright (c) Steve Scherf et al.
# Submitted via: audiograbber 1.83.01
#
DISCID=e510c411
DTITLE=Mr. Stinky - Summertime Madness
DYEAR=2013
DGENRE=Gangsta
TTITLE0=Intro
TTITLE1=Summertime Madness
TTITLE2=Do What You Do
TTITLE3=Get It In
TTITLE4=Knockin Off Cartoons
TTITLE5=Mr. I Do
TTITLE6=Wake Up
TTITLE7=One Monkey
TTITLE8=Only Live Once
TTITLE9=Choppa Growl
TTITLE10=Fi Di Gun Ting
TTITLE11=Fell For A Thug
TTITLE12=Lookin' Good
TTITLE13=Keep On Hustlin
TTITLE14=Lost Souls
TTITLE15=Funk In The Trunk
TTITLE16=Girl
EXTD=
EXTT0=
EXTT1=
EXTT2=
EXTT3=
EXTT4=
EXTT5=
EXTT6=
EXTT7=
EXTT8=
EXTT9=
EXTT10=
EXTT11=
EXTT12=
EXTT13=
EXTT14=
EXTT15=
EXTT16=
PLAYORDER=
